<svg width="24" height="24" viewBox="0 0 24 24" fill="none" xmlns="http://www.w3.org/2000/svg">
<path fill-rule="evenodd" clip-rule="evenodd" d="M3 12C3 7 7 3 12 3C17 3 21 7 21 12C21 17 17 21 12 21C7 21 3 17 3 12ZM5 12C5 15.9004 8.1001 19 12 19C15.8999 19 19 15.9004 19 12C19 8.09961 15.8999 5 12 5C8.1001 5 5 8.09961 5 12ZM11 9.5C11 10.3281 10.5522 11 10 11C9.72998 11 9.48486 10.8398 9.30518 10.5781C9.11719 10.3066 9 9.92383 9 9.5C9 8.67188 9.44775 8 10 8C10.5522 8 11 8.67188 11 9.5ZM15 9.5C15 10.3281 14.5522 11 14 11C13.4478 11 13 10.3281 13 9.5C13 8.67188 13.4478 8 14 8C14.5522 8 15 8.67188 15 9.5ZM16.1997 12C15.6997 11.9004 15.1001 12.1992 15 12.6992C14.6001 14.1992 13.2998 14.9004 12 14.9004C10.6001 14.9004 9.2998 14.0996 9 12.6992C8.7998 12.1992 8.2998 11.9004 7.7998 12C7.51709 12.0938 7.30078 12.2539 7.16211 12.4512C7.00635 12.6719 6.94727 12.9355 7 13.1992C7.69971 15.7988 9.8999 17 12 17C14.1001 17 16.2998 15.7988 17 13.1992C17.1001 12.6992 16.7998 12.1992 16.1997 12Z" fill="#6ECD56"/>
</svg>
