<svg width="24" height="24" viewBox="0 0 24 24" fill="none" xmlns="http://www.w3.org/2000/svg">
<path fill-rule="evenodd" clip-rule="evenodd" d="M12 3C7 3 3 7 3 12C3 17 7 21 12 21C17 21 21 17 21 12C21 7 17 3 12 3ZM12 19C8.1001 19 5 15.9004 5 12C5 8.09961 8.1001 5 12 5C15.8999 5 19 8.09961 19 12C19 15.9004 15.8999 19 12 19ZM11 9.5C11 10.3281 10.5522 11 10 11C9.44775 11 9 10.3281 9 9.5C9 8.67188 9.44775 8 10 8C10.2124 8 10.4097 8.09961 10.5718 8.26953C10.7368 8.44141 10.8652 8.6875 10.937 8.97461C10.9775 9.13672 11 9.31445 11 9.5ZM15 9.5C15 10.3281 14.5522 11 14 11C13.4478 11 13 10.3281 13 9.5C13 9.20117 13.0581 8.92188 13.1587 8.68945C13.252 8.47266 13.3813 8.29297 13.5342 8.17188C13.6733 8.0625 13.832 8 14 8C14.5522 8 15 8.67188 15 9.5ZM8 14.9004C9 13.5996 10.5 13 12 13C13.5 13 15 13.5996 16.1001 14.9004C16.2764 15.1348 16.3149 15.4727 16.2354 15.7734C16.1797 15.9844 16.0654 16.1758 15.9004 16.3008C15.5 16.5996 14.8003 16.5 14.5 16.0996C14.1372 15.6758 13.6641 15.3633 13.126 15.1816C12.7744 15.0625 12.395 15 12 15C11 15 10.1001 15.4004 9.6001 16.0996C9.44092 16.3652 9.16846 16.4902 8.8877 16.5039C8.64062 16.5156 8.3877 16.4414 8.2002 16.3008C7.7002 16 7.7002 15.3008 8 14.9004Z" fill="#D95C5C"/>
</svg>
